<?xml version="1.0" encoding="utf-8"?>
<!-- Generator: Adobe Illustrator 17.0.2, SVG Export Plug-In . SVG Version: 6.00 Build 0)  -->
<!DOCTYPE svg PUBLIC "-//W3C//DTD SVG 1.1 Tiny//EN" "http://www.w3.org/Graphics/SVG/1.1/DTD/svg11-tiny.dtd">
<svg version="1.1" baseProfile="tiny" id="Layer_2" xmlns="http://www.w3.org/2000/svg" xmlns:xlink="http://www.w3.org/1999/xlink"
	 x="0px" y="0px" width="150px" height="220px" viewBox="0 0 150 220" xml:space="preserve">
<g>
	<path fill="#FFFFFF" d="M47.375,150c4.782,0,7.24,2.86,7.24,7.866v0.983h-4.648v-1.296c0-2.235-0.894-3.084-2.458-3.084
		c-1.564,0-2.458,0.849-2.458,3.084c0,6.436,9.609,7.643,9.609,16.581c0,5.006-2.503,7.866-7.33,7.866S40,179.14,40,174.134v-1.922
		h4.648v2.235c0,2.235,0.983,3.039,2.547,3.039c1.564,0,2.547-0.805,2.547-3.039c0-6.436-9.609-7.642-9.609-16.581
		C40.134,152.86,42.592,150,47.375,150z"/>
	<path fill="#FFFFFF" d="M62.695,181.642h-4.916v-31.285h4.916v13.408h5.586v-13.408h5.006v31.285h-5.006v-13.408h-5.586V181.642z"
		/>
	<path fill="#FFFFFF" d="M77.165,150.357h7.777c4.916,0,7.33,2.726,7.33,7.732v15.821c0,5.006-2.414,7.732-7.33,7.732h-7.777
		V150.357z M82.081,154.827v22.346h2.771c1.564,0,2.503-0.805,2.503-3.039v-16.268c0-2.235-0.939-3.039-2.503-3.039H82.081z"/>
	<path fill="#FFFFFF" d="M102.943,181.642h-7.24v-31.285h4.916v11.754h2.324c4.916,0,7.33,2.726,7.33,7.732v4.067
		C110.273,178.916,107.859,181.642,102.943,181.642z M102.943,177.173c1.564,0,2.414-0.715,2.414-2.95v-4.693
		c0-2.235-0.849-2.95-2.414-2.95h-2.324v10.592H102.943z"/>
</g>
<path fill="#6EC6EB" d="M118.923,56.512c-2.401-5.677-5.838-10.775-10.214-15.151c-4.376-4.376-9.474-7.813-15.151-10.214
	c-5.88-2.487-12.124-3.748-18.557-3.748s-12.677,1.261-18.557,3.748c-5.677,2.401-10.775,5.838-15.151,10.214
	c-4.376,4.376-7.813,9.474-10.214,15.151c-2.487,5.88-3.748,12.124-3.748,18.558c0,6.433,1.261,12.676,3.748,18.556
	c2.401,5.677,5.838,10.775,10.214,15.151c4.376,4.377,9.474,7.813,15.151,10.214c5.88,2.487,12.124,3.748,18.557,3.748
	c6.434,0,12.677-1.261,18.557-3.748c5.677-2.401,10.775-5.838,15.151-10.214c4.376-4.376,7.813-9.474,10.214-15.151
	c2.487-5.88,3.748-12.123,3.748-18.556C122.671,68.636,121.41,62.392,118.923,56.512z M105.304,81.334
	c-3.955,2.803-8.987,4.97-14.986,6.452c-5.851,1.445-12.642,2.209-19.641,2.209c-8.082,0-18.616-1.214-24.429-3.543
	c-0.76-1.882-1.36-4.158-1.727-6.486c13.382-0.232,26.188-3.049,37.141-8.181c7.756-3.634,14.396-8.35,19.245-13.609
	c3.134,4.851,4.972,10.935,4.972,16.895C105.879,77.416,105.62,79.777,105.304,81.334z"/>
<path fill="#FFFFFF" d="M75,32.251c-23.648,0-42.818,19.169-42.818,42.819c0,23.646,19.17,42.818,42.818,42.818
	c23.648,0,42.818-19.171,42.818-42.818C117.818,51.42,98.648,32.251,75,32.251z M75,39.342c2.476,0,4.894,0.253,7.229,0.73
	c-5.922,7.672-17.934,12.923-31.804,12.923c-1.156,0-2.294-0.041-3.42-0.109C53.549,44.635,63.656,39.342,75,39.342z M75,110.795
	c-8.247,0-15.834-2.799-21.881-7.492c6.784,2.422,14.611,3.808,22.956,3.808c6.826,0,13.3-0.93,19.151-2.591
	C89.471,108.477,82.505,110.795,75,110.795z M42.588,90.116c-1.961-3.823-3.321-9.67-3.321-15.046
	c30.742,1.033,53.144-11.86,61.596-24.645c5.89,5.855,9.869,15.089,9.869,24.645c0,3.161-0.435,7.048-1.184,9.148
	C90.638,99.147,53.245,95.6,42.588,90.116z"/>
</svg>
