<?xml version="1.0" encoding="utf-8"?>
<!-- Generator: Adobe Illustrator 17.0.2, SVG Export Plug-In . SVG Version: 6.00 Build 0)  -->
<!DOCTYPE svg PUBLIC "-//W3C//DTD SVG 1.1 Tiny//EN" "http://www.w3.org/Graphics/SVG/1.1/DTD/svg11-tiny.dtd">
<svg version="1.1" baseProfile="tiny" id="Layer_1" xmlns="http://www.w3.org/2000/svg" xmlns:xlink="http://www.w3.org/1999/xlink"
	 x="0px" y="0px" width="128px" height="50px" viewBox="0 0 128 50" xml:space="preserve">
<g>
	<path fill="#FFFFFF" d="M60.914,10c4.483,0,6.788,2.682,6.788,7.374v0.922h-4.357v-1.215c0-2.095-0.838-2.891-2.305-2.891
		c-1.466,0-2.304,0.796-2.304,2.891c0,6.034,9.008,7.165,9.008,15.545c0,4.693-2.346,7.374-6.871,7.374S54,37.318,54,32.626v-1.802
		h4.358v2.095c0,2.095,0.922,2.849,2.388,2.849c1.467,0,2.388-0.754,2.388-2.849c0-6.033-9.008-7.165-9.008-15.545
		C54.126,12.682,56.43,10,60.914,10z"/>
	<path fill="#FFFFFF" d="M75.276,39.665h-4.609v-29.33h4.609v12.57h5.237v-12.57h4.693v29.33h-4.693v-12.57h-5.237V39.665z"/>
	<path fill="#FFFFFF" d="M88.842,10.335h7.291c4.609,0,6.871,2.556,6.871,7.249v14.832c0,4.693-2.263,7.249-6.871,7.249h-7.291
		V10.335z M93.451,14.525v20.95h2.598c1.466,0,2.346-0.754,2.346-2.849V17.374c0-2.095-0.88-2.849-2.346-2.849H93.451z"/>
	<path fill="#FFFFFF" d="M113.009,39.664h-6.788v-29.33h4.609v11.02h2.179c4.609,0,6.872,2.556,6.872,7.249v3.813
		C119.881,37.108,117.618,39.664,113.009,39.664z M113.009,35.474c1.467,0,2.263-0.67,2.263-2.765v-4.4
		c0-2.095-0.796-2.765-2.263-2.765h-2.179v9.93H113.009z"/>
</g>
<g>
	<path fill="#6EC6EB" d="M45.405,16.13c-1.083-2.561-2.633-4.86-4.607-6.833c-1.974-1.974-4.273-3.524-6.833-4.607
		C31.312,3.569,28.497,3,25.595,3s-5.717,0.569-8.37,1.69c-2.56,1.083-4.86,2.633-6.833,4.607c-1.974,1.974-3.524,4.273-4.607,6.833
		c-1.122,2.652-1.69,5.468-1.69,8.37c0,2.901,0.569,5.717,1.69,8.369c1.083,2.56,2.633,4.859,4.607,6.833
		c1.974,1.974,4.273,3.524,6.833,4.607C19.878,45.431,22.693,46,25.595,46c2.902,0,5.717-0.569,8.37-1.691
		c2.56-1.083,4.86-2.633,6.833-4.607c1.974-1.974,3.524-4.273,4.607-6.833c1.122-2.652,1.69-5.468,1.69-8.369
		C47.095,21.599,46.526,18.783,45.405,16.13z M39.262,27.325c-1.784,1.264-4.053,2.242-6.759,2.91
		c-2.639,0.652-5.702,0.996-8.858,0.996c-3.645,0-8.396-0.548-11.018-1.598c-0.343-0.849-0.613-1.875-0.779-2.925
		c6.035-0.105,11.811-1.375,16.751-3.69c3.498-1.639,6.492-3.766,8.68-6.138c1.414,2.188,2.242,4.932,2.242,7.62
		C39.522,25.558,39.405,26.623,39.262,27.325z"/>
	<path fill="#FFFFFF" d="M25.595,5.189c-10.666,0-19.311,8.645-19.311,19.312c0,10.665,8.646,19.311,19.311,19.311
		c10.666,0,19.311-8.646,19.311-19.311C44.906,13.834,36.261,5.189,25.595,5.189z M25.595,8.387c1.117,0,2.207,0.114,3.26,0.329
		c-2.671,3.46-8.089,5.828-14.344,5.828c-0.521,0-1.035-0.018-1.542-0.049C15.92,10.774,20.479,8.387,25.595,8.387z M25.595,40.613
		c-3.72,0-7.141-1.263-9.868-3.379c3.06,1.092,6.59,1.717,10.354,1.717c3.079,0,5.998-0.42,8.637-1.169
		C32.122,39.567,28.98,40.613,25.595,40.613z M10.977,31.286c-0.884-1.724-1.498-4.361-1.498-6.786
		c13.865,0.466,23.968-5.349,27.781-11.115c2.656,2.64,4.451,6.805,4.451,11.115c0,1.426-0.196,3.179-0.534,4.126
		C32.648,35.359,15.784,33.759,10.977,31.286z"/>
</g>
</svg>
